#!OML:ASF E:\Steps\Project 1\Capture day 1\Session 2\Subject.ASF
:FULLY-SPECIFIED
:DEGREES
413
root 10.1715 15.3832 18.7118 4.63424 -82.9421 20.9488
lowerback -18.6102 -1.99281 -5.12839
upperback -1.69723 -1.60651 -1.04934
thorax 8.70817 -0.993685 1.35457
lowerneck -0.298519 -1.37873 1.03152
upperneck -12.637 -1.77822 2.80419
head -4.05323 -1.15605 0.820439
rclavicle 1.97791e-014 1.27222e-014
rhumerus -30.9609 -0.379419 -89.9263
rradius 37.8861
rwrist 3.27321
rhand -11.3299 -52.308
rfingers 7.12502
rthumb 14.7027 -81.7667
lclavicle 1.97791e-014 1.27222e-014
lhumerus -30.4551 -2.72105 84.2828
lradius 21.0336
lwrist -5.41111
lhand -25.2189 -17.5786
lfingers 7.12502
lthumb 1.30014 12.3972
rfemur -46.2145 7.45126 17.2815
rtibia 47.6346
rfoot -36.4988 -16.8123
rtoes -30.9296
lfemur -48.5753 -12.1138 -15.5947
ltibia 49.1234
lfoot -23.5009 2.83393
ltoes -36.5087
414
root 10.1804 15.4619 18.7341 3.66275 -82.9732 22.2779
lowerback -18.9344 -1.97044 -5.16049
upperback -1.85213 -1.5607 -1.07788
thorax 8.71283 -0.973679 1.34837
lowerneck -0.445922 -1.40713 0.591167
upperneck -12.7405 -1.77862 3.38836
head -4.05401 -1.16489 1.0924
rclavicle 1.63003e-014 1.59028e-014
rhumerus -31.0824 -0.562641 -89.9791
rradius 37.3878
rwrist 4.1556
rhand -11.1247 -52.2913
rfingers 7.12502
rthumb 14.9004 -81.7354
lclavicle 1.63003e-014 1.59028e-014
lhumerus -30.7111 -3.20779 84.8686
lradius 21.4176
lwrist -4.5398
lhand -25.1315 -16.7132
lfingers 7.12502
lthumb 1.3846 13.262
rfemur -46.0288 7.19821 16.9561
rtibia 46.3757
rfoot -35.9301 -16.4691
rtoes -31.1381
lfemur -48.2512 -12.2753 -15.7034
ltibia 47.688
lfoot -22.9696 2.89784
ltoes -35.629
415
root 10.1863 15.5377 18.7543 2.11543 -83.0294 24.0817
lowerback -19.2295 -1.98737 -5.30626
upperback -1.9757 -1.54743 -1.04275
thorax 8.74234 -0.974778 1.46745
lowerneck -0.647152 -1.24394 1.75688
upperneck -12.5087 -1.65467 2.13925
head -3.95288 -1.09718 0.463113
rclavicle -2.28602e-015 1.59028e-015
rhumerus -31.2927 -0.734587 -89.8903
rradius 37.0249
rwrist 5.07007
rhand -10.7548 -52.3397
rfingers 7.12502
rthumb 15.2567 -81.7571
lclavicle -2.28602e-015 1.59028e-015
lhumerus -31.0439 -3.69617 85.5534
lradius 21.8785
lwrist -3.64542
lhand -25.3632 -15.7505
lfingers 7.12502
lthumb 1.16075 14.2261
rfemur -45.5732 7.07114 16.5621
rtibia 44.8716
rfoot -35.2083 -16.2567
rtoes -30.9511
lfemur -47.7883 -12.4735 -15.874
ltibia 46.2426
lfoot -22.6853 2.66396
ltoes -32.4347
416
root 10.1921 15.6009 18.7632 2.08034 -83.3588 24.5103
lowerback -19.7088 -1.9654 -5.37879
upperback -2.1503 -1.50088 -0.881272
thorax 8.81467 -0.960436 1.68861
lowerneck -0.537852 -1.24574 0.697173
upperneck -12.7237 -1.59234 3.07129
head -4.03568 -1.06311 0.960242
rclavicle 2.68359e-015 -5.64548e-014
rhumerus -31.4904 -0.874194 -89.7586
rradius 36.5861
rwrist 5.7417
rhand -10.8596 -51.545
rfingers 7.12502
rthumb 15.1558 -80.97
lclavicle 2.68359e-015 -5.64548e-014
lhumerus -31.1405 -3.45984 85.9174
lradius 21.9471
lwrist -3.65365
lhand -25.4628 -15.9507
lfingers 7.12502
lthumb 1.06457 14.0263
rfemur -45.4631 7.42024 16.3563
rtibia 43.5594
rfoot -34.4947 -16.0639
rtoes -30.413
lfemur -47.4965 -12.3728 -15.7435
ltibia 44.8156
lfoot -22.2467 2.68563
ltoes -30.103
417
root 10.1968 15.6741 18.7965 2.97749 -83.1018 23.4696
lowerback -19.5538 -2.01248 -5.05276
upperback -2.19168 -1.65111 -0.801662
thorax 8.68869 -1.01891 1.55422
lowerneck -0.67602 -1.20308 0.90344
upperneck -12.6592 -1.56935 2.71488
head -3.9897 -1.0443 0.801886
rclavicle 1.0635e-014 -7.95139e-016
rhumerus -31.5282 -1.35173 -89.572
rradius 35.9046
rwrist 6.64373
rhand -10.853 -51.627
rfingers 7.12502
rthumb 15.1621 -81.0515
lclavicle 1.0635e-014 -7.95139e-016
lhumerus -30.9583 -2.63749 85.9388
lradius 21.6057
lwrist -4.56695
lhand -25.287 -16.4666
lfingers 7.12502
lthumb 1.23433 13.5096
rfemur -44.5542 7.17627 16.2933
rtibia 42.0817
rfoot -33.8757 -15.9129
rtoes -29.8035
lfemur -46.7359 -12.9635 -15.6727
ltibia 43.4571
lfoot -21.4299 3.13233
ltoes -31.2617
